<?xml version="1.0"?>
<svg xmlns="http://www.w3.org/2000/svg" viewBox="0 0 64 64">
    <path d="M 31 4 C 15.01 4 2 17.009 2 33 C 2 48.991 15.01 62 31 62 C 46.99 62 60 48.991 60 33 C 60 17.009 46.99 4 31 4 z M 31 6 C 45.888 6 58 18.112 58 33 C 58 47.888 45.888 60 31 60 C 16.112 60 4 47.888 4 33 C 4 18.112 16.112 6 31 6 z M 30.564453 10.005859 C 24.67286 10.126379 18.964094 12.511328 14.738281 16.736328 C 5.7712812 25.703328 5.7712812 40.294719 14.738281 49.261719 C 14.747281 49.270719 14.758578 49.27225 14.767578 49.28125 C 14.816578 49.32725 14.8785 49.359531 14.9375 49.394531 C 14.9935 49.428531 15.045469 49.466281 15.105469 49.488281 C 15.117469 49.492281 15.126672 49.503813 15.138672 49.507812 C 15.241672 49.540813 15.343313 49.554688 15.445312 49.554688 C 15.565312 49.554688 15.679062 49.527328 15.789062 49.486328 C 15.822062 49.474328 15.850813 49.455453 15.882812 49.439453 C 15.961813 49.400453 16.033609 49.354875 16.099609 49.296875 C 16.115609 49.282875 16.137344 49.277719 16.152344 49.261719 C 16.166344 49.247719 16.170594 49.227891 16.183594 49.212891 C 16.240594 49.148891 16.286172 49.077047 16.326172 48.998047 C 16.343172 48.964047 16.365906 48.932484 16.378906 48.896484 C 16.383906 48.883484 16.392484 48.873375 16.396484 48.859375 C 17.231484 46.262375 19.195531 44.288031 21.519531 43.707031 C 21.571531 43.694031 21.612156 43.661625 21.660156 43.640625 C 24.292156 45.164625 27.566 46 31 46 C 34.381 46 37.607703 45.191797 40.220703 43.716797 C 42.535703 44.303797 44.492219 46.272328 45.324219 48.861328 C 45.461219 49.285328 45.852391 49.556641 46.275391 49.556641 C 46.327391 49.556641 46.379641 49.54025 46.431641 49.53125 C 46.473641 49.53625 46.514641 49.554687 46.556641 49.554688 C 46.812641 49.554688 47.068672 49.456719 47.263672 49.261719 C 56.230672 40.295719 56.229672 25.703328 47.263672 16.736328 C 46.605672 16.077328 45.900922 15.453859 45.169922 14.880859 C 44.732922 14.539859 44.105625 14.616781 43.765625 15.050781 C 43.424625 15.485781 43.500547 16.114078 43.935547 16.455078 C 44.603547 16.978078 45.247609 17.548391 45.849609 18.150391 C 53.738609 26.039391 54.002453 38.682922 46.689453 46.919922 C 45.717453 44.888922 44.144531 43.281141 42.269531 42.369141 C 44.933531 40.382141 46.879172 37.808766 45.451172 32.134766 L 42.691406 19.945312 C 42.469406 18.966313 41.728859 18.203078 40.755859 17.955078 C 39.785859 17.707078 38.767516 18.020438 38.103516 18.773438 L 33.371094 24.136719 C 33.272094 24.124719 33.172266 24.121328 33.072266 24.111328 C 32.959266 24.099328 32.845422 24.091031 32.732422 24.082031 C 32.165422 24.034031 31.597344 24.002953 31.027344 24.001953 C 31.018344 24.000953 31.009 24 31 24 C 30.984 24 30.969125 24.001953 30.953125 24.001953 C 30.489125 24.002953 30.0245 24.024641 29.5625 24.056641 C 29.3965 24.067641 29.231406 24.083609 29.066406 24.099609 C 28.920406 24.113609 28.774906 24.119719 28.628906 24.136719 L 23.896484 18.773438 C 23.231484 18.020437 22.212141 17.708078 21.244141 17.955078 C 20.271141 18.204078 19.530594 18.966312 19.308594 19.945312 L 16.554688 32.111328 C 15.140688 37.726328 17.014094 40.309156 19.621094 42.285156 C 17.733094 43.151156 16.143766 44.726609 15.134766 46.724609 C 7.9997656 38.483609 8.3233906 25.976391 16.150391 18.150391 C 20.898391 13.402391 27.701844 11.201625 34.339844 12.265625 C 34.885844 12.353625 35.397375 11.980547 35.484375 11.435547 C 35.572375 10.890547 35.20125 10.376062 34.65625 10.289062 C 33.293125 10.070625 31.924052 9.9780471 30.564453 10.005859 z M 38.658203 11.384766 C 38.269047 11.400984 37.910375 11.647406 37.765625 12.035156 C 37.570625 12.553156 37.833563 13.128266 38.351562 13.322266 C 39.064563 13.589266 39.771172 13.897234 40.451172 14.240234 C 40.596172 14.313234 40.749391 14.347656 40.900391 14.347656 C 41.265391 14.347656 41.618922 14.146828 41.794922 13.798828 C 42.043922 13.305828 41.844562 12.703078 41.351562 12.455078 C 40.607563 12.079078 39.832781 11.741219 39.050781 11.449219 C 38.921531 11.400469 38.787922 11.379359 38.658203 11.384766 z M 21.910156 19.871094 C 22.051156 19.871094 22.237484 19.913703 22.396484 20.095703 L 26.322266 24.546875 C 25.765266 24.680875 25.215734 24.833625 24.677734 25.015625 C 23.940734 25.265625 23.225734 25.563437 22.552734 25.898438 C 22.058734 26.145437 21.858469 26.744281 22.105469 27.238281 C 22.351469 27.732281 22.950312 27.9335 23.445312 27.6875 C 24.037312 27.3925 24.668312 27.131156 25.320312 26.910156 C 26.496312 26.511156 27.735719 26.255141 29.011719 26.119141 C 29.213719 26.097141 29.413188 26.069687 29.617188 26.054688 C 30.008188 26.025688 30.403781 26.013766 30.800781 26.009766 C 30.887781 26.008766 30.9745 26.003906 31.0625 26.003906 C 31.5665 26.005906 32.068406 26.032219 32.566406 26.074219 C 32.719406 26.087219 32.871437 26.105094 33.023438 26.121094 C 34.641438 26.299094 36.203187 26.677719 37.617188 27.261719 C 38.274188 27.533719 38.902375 27.848266 39.484375 28.197266 C 39.645375 28.293266 39.823047 28.339844 39.998047 28.339844 C 40.338047 28.339844 40.670422 28.166516 40.857422 27.853516 C 41.141422 27.379516 40.987672 26.766422 40.513672 26.482422 C 39.846672 26.083422 39.130812 25.723063 38.382812 25.414062 C 37.520812 25.058062 36.601109 24.788453 35.662109 24.564453 L 39.603516 20.095703 C 39.844516 19.821703 40.142719 19.862578 40.261719 19.892578 C 40.378719 19.922578 40.660234 20.030719 40.740234 20.386719 L 43.507812 32.599609 C 44.823813 37.828609 42.900969 39.583281 40.042969 41.488281 C 37.613969 43.108281 34.402 44 31 44 C 27.598 44 24.386031 43.108281 21.957031 41.488281 C 19.099031 39.582281 17.176047 37.829172 18.498047 32.576172 L 21.259766 20.386719 C 21.339766 20.031719 21.621281 19.922578 21.738281 19.892578 C 21.778281 19.882578 21.838156 19.871094 21.910156 19.871094 z M 31 32 C 29.897 32 29 32.897 29 34 C 29 34.737 29.405 35.375656 30 35.722656 L 30 37.585938 L 29.707031 37.878906 C 29.316031 38.269906 28.683969 38.268906 28.292969 37.878906 L 27.707031 37.292969 C 27.316031 36.901969 26.683969 36.901969 26.292969 37.292969 C 25.901969 37.683969 25.901969 38.316031 26.292969 38.707031 L 26.878906 39.292969 C 28.008906 40.420969 29.824 40.46025 31 39.40625 C 31.567 39.91425 32.283 40.169922 33 40.169922 C 33.768 40.169922 34.536094 39.877969 35.121094 39.292969 L 35.707031 38.705078 C 36.098031 38.314078 36.098031 37.683969 35.707031 37.292969 C 35.316031 36.901969 34.683969 36.901969 34.292969 37.292969 L 33.707031 37.878906 C 33.316031 38.269906 32.683969 38.268906 32.292969 37.878906 L 32 37.585938 L 32 35.722656 C 32.595 35.375656 33 34.737 33 34 C 33 32.897 32.103 32 31 32 z M 21.373047 49.394531 C 20.986094 49.346391 20.591016 49.527469 20.384766 49.886719 L 19.384766 51.619141 C 19.108766 52.097141 19.272 52.708375 19.75 52.984375 C 19.907 53.075375 20.078047 53.119141 20.248047 53.119141 C 20.594047 53.119141 20.930234 52.940141 21.115234 52.619141 L 22.115234 50.886719 C 22.392234 50.409719 22.229 49.798484 21.75 49.521484 C 21.6305 49.452484 21.502031 49.410578 21.373047 49.394531 z M 40.625 49.394531 C 40.496266 49.410625 40.369 49.452234 40.25 49.521484 C 39.771 49.797484 39.607766 50.410672 39.884766 50.888672 L 40.884766 52.619141 C 41.070766 52.940141 41.405953 53.119141 41.751953 53.119141 C 41.921953 53.119141 42.093 53.077328 42.25 52.986328 C 42.729 52.710328 42.892234 52.097141 42.615234 51.619141 L 41.615234 49.888672 C 41.407484 49.529422 41.011203 49.34625 40.625 49.394531 z M 36.185547 51.34375 C 36.056844 51.325938 35.920609 51.333141 35.787109 51.369141 C 35.254109 51.512141 34.937078 52.061703 35.080078 52.595703 L 35.599609 54.527344 C 35.718609 54.974344 36.122453 55.269531 36.564453 55.269531 C 36.650453 55.269531 36.737219 55.258375 36.824219 55.234375 C 37.357219 55.091375 37.67425 54.543766 37.53125 54.009766 L 37.013672 52.076172 C 36.906422 51.675672 36.571656 51.397187 36.185547 51.34375 z M 25.816406 51.345703 C 25.430578 51.399281 25.093578 51.675672 24.986328 52.076172 L 24.46875 54.009766 C 24.32575 54.543766 24.642781 55.091375 25.175781 55.234375 C 25.262781 55.257375 25.349547 55.269531 25.435547 55.269531 C 25.876547 55.269531 26.281391 54.974344 26.400391 54.527344 L 26.919922 52.595703 C 27.062922 52.061703 26.745891 51.511141 26.212891 51.369141 C 26.079891 51.333391 25.945016 51.327844 25.816406 51.345703 z M 31 52 C 30.447 52 30 52.448 30 53 L 30 55 C 30 55.552 30.447 56 31 56 C 31.553 56 32 55.552 32 55 L 32 53 C 32 52.448 31.553 52 31 52 z"/>
</svg>
