<svg xmlns="http://www.w3.org/2000/svg" width="805" height="600"><rect width="805" height="600" x="0" y="0" fill="#FFFFFF" id="backgorund"/><g transform="translate(402.5,300)" id="viz"><g id="links"><path d="M0,0C-13.667493555630225,45.49120376409934,29.39463607305836,-37.31226835951489,58.78927214611672,-74.62453671902978" fill="none" stroke="#ccc"/><path d="M0,0C-13.667493555630225,45.49120376409934,46.62160547968088,9.092629020090378,93.24321095936176,18.185258040180756" fill="none" stroke="#ccc"/><path d="M0,0C-13.667493555630225,45.49120376409934,23.81311604826763,41.09970199492618,47.62623209653526,82.19940398985236" fill="none" stroke="#ccc"/><path d="M0,0C-13.667493555630225,45.49120376409934,-10.789088344760614,46.25846487605215,-21.57817668952123,92.5169297521043" fill="none" stroke="#ccc"/><path d="M0,0C-13.667493555630225,45.49120376409934,-38.33286301635137,28.050697192220397,-76.66572603270274,56.101394384440795" fill="none" stroke="#ccc"/><path d="M0,0C-13.667493555630225,45.49120376409934,-47.35640575760743,3.690641369849634,-94.71281151521487,7.381282739699268" fill="none" stroke="#ccc"/><path d="M0,0C-13.667493555630225,45.49120376409934,-45.877837517721325,-12.307478405325824,-91.75567503544265,-24.61495681065165" fill="none" stroke="#ccc"/><path d="M0,0C-13.667493555630225,45.49120376409934,-41.222816112155336,-23.599352359406524,-82.44563222431067,-47.19870471881305" fill="none" stroke="#ccc"/><path d="M0,0C-13.667493555630225,45.49120376409934,-36.57857286197466,-30.30277227220656,-73.15714572394933,-60.60554454441312" fill="none" stroke="#ccc"/><path d="M0,0C-13.667493555630225,45.49120376409934,-28.263831558924114,-38.17598493305399,-56.52766311784823,-76.35196986610798" fill="none" stroke="#ccc"/><path d="M0,0C-13.667493555630225,45.49120376409934,-18.468669196495682,-43.76252115806871,-36.937338392991364,-87.52504231613742" fill="none" stroke="#ccc"/><path d="M0,0C-13.667493555630225,45.49120376409934,-11.255927505004115,-46.14709195607121,-22.51185501000823,-92.29418391214242" fill="none" stroke="#ccc"/><path d="M0,0C-13.667493555630225,45.49120376409934,-3.9631817205116198,-47.33437641556296,-7.9263634410232395,-94.66875283112591" fill="none" stroke="#ccc"/><path d="M58.78927214611672,-74.62453671902978C88.1839082191751,-111.93680507854467,11.889545161534716,-142.00312924668887,15.852726882046289,-189.33750566225186" fill="none" stroke="#ccc"/><path d="M58.78927214611672,-74.62453671902978C88.1839082191751,-111.93680507854467,36.453669532554564,-137.75841164012928,48.60489271007275,-183.677882186839" fill="none" stroke="#ccc"/><path d="M58.78927214611672,-74.62453671902978C88.1839082191751,-111.93680507854467,59.480203438392394,-129.49268473132935,79.30693791785652,-172.65691297510577" fill="none" stroke="#ccc"/><path d="M58.78927214611672,-74.62453671902978C88.1839082191751,-111.93680507854467,80.75350917817505,-117.41005389407842,107.67134557090007,-156.5467385254379" fill="none" stroke="#ccc"/><path d="M58.78927214611672,-74.62453671902978C88.1839082191751,-111.93680507854467,99.26874173935988,-102.23486153697412,132.3583223191465,-136.3131487159655" fill="none" stroke="#ccc"/><path d="M58.78927214611672,-74.62453671902978C88.1839082191751,-111.93680507854467,114.66992311704584,-84.59940148919964,152.8932308227278,-112.79920198559951" fill="none" stroke="#ccc"/><path d="M58.78927214611672,-74.62453671902978C88.1839082191751,-111.93680507854467,126.6901186601434,-65.23698210278268,168.92015821352453,-86.98264280371023" fill="none" stroke="#ccc"/><path d="M58.78927214611672,-74.62453671902978C88.1839082191751,-111.93680507854467,135.27443735159406,-44.80040847145988,180.36591646879208,-59.73387796194651" fill="none" stroke="#ccc"/><path d="M93.24321095936176,18.185258040180756C139.86481643904264,27.277887060271137,140.90415472258147,-21.26662130933888,187.8722062967753,-28.35549507911851" fill="none" stroke="#ccc"/><path d="M93.24321095936176,18.185258040180756C139.86481643904264,27.277887060271137,142.42899548990377,4.49791548797552,189.9053273198717,5.997220650634027" fill="none" stroke="#ccc"/><path d="M93.24321095936176,18.185258040180756C139.86481643904264,27.277887060271137,139.4658573427385,29.24935273907636,185.95447645698465,38.99913698543514" fill="none" stroke="#ccc"/><path d="M93.24321095936176,18.185258040180756C139.86481643904264,27.277887060271137,132.60136964259,52.183587160229,176.80182619011995,69.57811621363868" fill="none" stroke="#ccc"/><path d="M93.24321095936176,18.185258040180756C139.86481643904264,27.277887060271137,122.58652626084672,72.65530661485597,163.44870168112897,96.87374215314131" fill="none" stroke="#ccc"/><path d="M47.62623209653526,82.19940398985236C71.43934814480289,123.29910598477854,108.79798668066726,92.02851783134047,145.0639822408897,122.70469044178729" fill="none" stroke="#ccc"/><path d="M47.62623209653526,82.19940398985236C71.43934814480289,123.29910598477854,91.09599698427871,109.57996775615644,121.4613293123716,146.10662367487524" fill="none" stroke="#ccc"/><path d="M47.62623209653526,82.19940398985236C71.43934814480289,123.29910598477854,71.00961264712994,123.54709592582321,94.67948352950658,164.72946123443097" fill="none" stroke="#ccc"/><path d="M47.62623209653526,82.19940398985236C71.43934814480289,123.29910598477854,48.83016127663509,133.87257131204214,65.10688170218012,178.49676174938952" fill="none" stroke="#ccc"/><path d="M47.62623209653526,82.19940398985236C71.43934814480289,123.29910598477854,25.730445672367892,140.15774743303106,34.307260896490526,186.87699657737474" fill="none" stroke="#ccc"/><path d="M-21.57817668952123,92.5169297521043C-32.36726503428184,138.77539462815645,1.439802642301871,142.49272601908922,1.9197368564024948,189.99030135878562" fill="none" stroke="#ccc"/><path d="M-21.57817668952123,92.5169297521043C-32.36726503428184,138.77539462815645,-22.275211149752323,140.7482325581176,-29.7002815330031,187.66431007749011" fill="none" stroke="#ccc"/><path d="M-21.57817668952123,92.5169297521043C-32.36726503428184,138.77539462815645,-43.83318766151737,135.59093501938173,-58.44425021535649,180.78791335917566" fill="none" stroke="#ccc"/><path d="M-21.57817668952123,92.5169297521043C-32.36726503428184,138.77539462815645,-64.33054604876632,127.15278543967315,-85.7740613983551,169.53704725289754" fill="none" stroke="#ccc"/><path d="M-76.66572603270274,56.101394384440795C-114.9985890490541,84.15209157666119,-84.20447907588546,114.96023531447197,-112.27263876784728,153.2803137526293" fill="none" stroke="#ccc"/><path d="M-76.66572603270274,56.101394384440795C-114.9985890490541,84.15209157666119,-101.82412060964364,99.690011847089,-135.76549414619154,132.92001579611866" fill="none" stroke="#ccc"/><path d="M-76.66572603270274,56.101394384440795C-114.9985890490541,84.15209157666119,-116.05230983129802,82.69287383336251,-154.73641310839736,110.25716511115002" fill="none" stroke="#ccc"/><path d="M-76.66572603270274,56.101394384440795C-114.9985890490541,84.15209157666119,-127.1058148356633,64.42330195637348,-169.4744197808844,85.89773594183131" fill="none" stroke="#ccc"/><path d="M-76.66572603270274,56.101394384440795C-114.9985890490541,84.15209157666119,-135.04721427048247,45.48076426119503,-180.0629523606433,60.6410190149267" fill="none" stroke="#ccc"/><path d="M-94.71281151521487,7.381282739699268C-142.0692172728223,11.0719241095489,-140.59946737380312,23.1956843874646,-187.46595649840418,30.92757918328613" fill="none" stroke="#ccc"/><path d="M-94.71281151521487,7.381282739699268C-142.0692172728223,11.0719241095489,-142.49549450492773,-1.1331574454192959,-189.993992673237,-1.5108765938923945" fill="none" stroke="#ccc"/><path d="M-91.75567503544265,-24.61495681065165C-137.63351255316397,-36.92243521597747,-140.2949860324823,-24.971321433708553,-187.0599813766431,-33.29509524494474" fill="none" stroke="#ccc"/><path d="M-91.75567503544265,-24.61495681065165C-137.63351255316397,-36.92243521597747,-133.95594834093967,-48.60096608175092,-178.60793112125288,-64.80128810900122" fill="none" stroke="#ccc"/><path d="M-82.44563222431067,-47.19870471881305C-123.66844833646601,-70.79805707821957,-123.66844833646601,-70.79805707821957,-164.89126444862134,-94.3974094376261" fill="none" stroke="#ccc"/><path d="M-73.15714572394933,-60.60554454441312C-109.73571858592399,-90.90831681661967,-109.73571858592399,-90.90831681661967,-146.31429144789865,-121.21108908882624" fill="none" stroke="#ccc"/><path d="M-56.52766311784823,-76.35196986610798C-84.79149467677234,-114.52795479916198,-93.44222179419788,-107.5862499865291,-124.5896290589305,-143.44833331537214" fill="none" stroke="#ccc"/><path d="M-56.52766311784823,-76.35196986610798C-84.79149467677234,-114.52795479916198,-75.62707110913004,-120.77580931401201,-100.83609481217339,-161.03441241868268" fill="none" stroke="#ccc"/><path d="M-36.937338392991364,-87.52504231613742C-55.40600758948704,-131.28756347420614,-55.40600758948704,-131.28756347420614,-73.87467678598273,-175.05008463227483" fill="none" stroke="#ccc"/><path d="M-22.51185501000823,-92.29418391214242C-33.76778251501234,-138.44127586821364,-33.76778251501234,-138.44127586821364,-45.02371002001646,-184.58836782428483" fill="none" stroke="#ccc"/><path d="M-7.9263634410232395,-94.66875283112591C-11.889545161534858,-142.00312924668887,-11.889545161534858,-142.00312924668887,-15.852726882046479,-189.33750566225183" fill="none" stroke="#ccc"/></g><g><circle transform="&#10;&#9;        rotate(106.72250435157738)&#10;&#9;        translate(0,0)&#10;&#9;      " fill="#ccc" r="5"/><circle transform="&#10;&#9;        rotate(-51.76893075646561)&#10;&#9;        translate(95,0)&#10;&#9;      " fill="#62e586" r="5"/><circle transform="&#10;&#9;        rotate(11.035885387262297)&#10;&#9;        translate(95,0)&#10;&#9;      " fill="#62e586" r="5"/><circle transform="&#10;&#9;        rotate(59.9120510119364)&#10;&#9;        translate(95,0)&#10;&#9;      " fill="#2e2ec4" r="5"/><circle transform="&#10;&#9;        rotate(103.12867347800409)&#10;&#9;        translate(95,0)&#10;&#9;      " fill="#62e586" r="5"/><circle transform="&#10;&#9;        rotate(143.8045918544199)&#10;&#9;        translate(95,0)&#10;&#9;      " fill="#62e586" r="5"/><circle transform="&#10;&#9;        rotate(175.54375759739082)&#10;&#9;        translate(95,0)&#10;&#9;      " fill="#62e586" r="5"/><circle transform="&#10;&#9;        rotate(195.01695128892453)&#10;&#9;        translate(95,0)&#10;&#9;      " fill="#2e2ec4" r="5"/><circle transform="&#10;&#9;        rotate(209.79039420137389)&#10;&#9;        translate(95,0)&#10;&#9;      " fill="#e11495" r="5"/><circle transform="&#10;&#9;        rotate(219.6393561430068)&#10;&#9;        translate(95,0)&#10;&#9;      " fill="#62e586" r="5"/><circle transform="&#10;&#9;        rotate(233.4853694789805)&#10;&#9;        translate(95,0)&#10;&#9;      " fill="#62e586" r="5"/><circle transform="&#10;&#9;        rotate(247.1192713780111)&#10;&#9;        translate(95,0)&#10;&#9;      " fill="#2e2ec4" r="5"/><circle transform="&#10;&#9;        rotate(256.2924070944633)&#10;&#9;        translate(95,0)&#10;&#9;      " fill="#62e586" r="5"/><circle transform="&#10;&#9;        rotate(265.2139394596203)&#10;&#9;        translate(95,0)&#10;&#9;      " fill="#62e586" r="5"/><circle transform="&#10;&#9;        rotate(-85.21393945962035)&#10;&#9;        translate(190,0)&#10;&#9;      " fill="#62e586" r="9.12870929175277"/><circle transform="&#10;&#9;        rotate(-75.17810359062314)&#10;&#9;        translate(190,0)&#10;&#9;      " fill="#62e586" r="8.16496580927726"/><circle transform="&#10;&#9;        rotate(-65.32914164899019)&#10;&#9;        translate(190,0)&#10;&#9;      " fill="#62e586" r="8.16496580927726"/><circle transform="&#10;&#9;        rotate(-55.48017970735726)&#10;&#9;        translate(190,0)&#10;&#9;      " fill="#62e586" r="8.16496580927726"/><circle transform="&#10;&#9;        rotate(-45.84332920266722)&#10;&#9;        translate(190,0)&#10;&#9;      " fill="#62e586" r="7.0710678118654755"/><circle transform="&#10;&#9;        rotate(-36.41859013492012)&#10;&#9;        translate(190,0)&#10;&#9;      " fill="#62e586" r="7.0710678118654755"/><circle transform="&#10;&#9;        rotate(-27.245454418468007)&#10;&#9;        translate(190,0)&#10;&#9;      " fill="#62e586" r="5.773502691896258"/><circle transform="&#10;&#9;        rotate(-18.323922053310838)&#10;&#9;        translate(190,0)&#10;&#9;      " fill="#62e586" r="5.773502691896258"/><circle transform="&#10;&#9;        rotate(-8.582854028175944)&#10;&#9;        translate(190,0)&#10;&#9;      " fill="#62e586" r="10"/><circle transform="&#10;&#9;        rotate(1.8088027125611603)&#10;&#9;        translate(190,0)&#10;&#9;      " fill="#62e586" r="9.12870929175277"/><circle transform="&#10;&#9;        rotate(11.844638581558371)&#10;&#9;        translate(190,0)&#10;&#9;      " fill="#62e586" r="8.16496580927726"/><circle transform="&#10;&#9;        rotate(21.481489086248402)&#10;&#9;        translate(190,0)&#10;&#9;      " fill="#62e586" r="7.0710678118654755"/><circle transform="&#10;&#9;        rotate(30.654624802700525)&#10;&#9;        translate(190,0)&#10;&#9;      " fill="#62e586" r="5.773502691896258"/><circle transform="&#10;&#9;        rotate(40.22674588345984)&#10;&#9;        translate(190,0)&#10;&#9;      " fill="#2e2ec4" r="9.12870929175277"/><circle transform="&#10;&#9;        rotate(50.262581752457066)&#10;&#9;        translate(190,0)&#10;&#9;      " fill="#2e2ec4" r="8.16496580927726"/><circle transform="&#10;&#9;        rotate(60.11154369408999)&#10;&#9;        translate(190,0)&#10;&#9;      " fill="#2e2ec4" r="8.16496580927726"/><circle transform="&#10;&#9;        rotate(69.96050563572294)&#10;&#9;        translate(190,0)&#10;&#9;      " fill="#2e2ec4" r="8.16496580927726"/><circle transform="&#10;&#9;        rotate(79.59735614041296)&#10;&#9;        translate(190,0)&#10;&#9;      " fill="#2e2ec4" r="7.0710678118654755"/><circle transform="&#10;&#9;        rotate(89.42108057246728)&#10;&#9;        translate(190,0)&#10;&#9;      " fill="#62e586" r="9.12870929175277"/><circle transform="&#10;&#9;        rotate(98.99320165322658)&#10;&#9;        translate(190,0)&#10;&#9;      " fill="#62e586" r="5.773502691896258"/><circle transform="&#10;&#9;        rotate(107.91473401838371)&#10;&#9;        translate(190,0)&#10;&#9;      " fill="#62e586" r="5.773502691896258"/><circle transform="&#10;&#9;        rotate(116.83626638354085)&#10;&#9;        translate(190,0)&#10;&#9;      " fill="#62e586" r="5.773502691896258"/><circle transform="&#10;&#9;        rotate(126.22151353693596)&#10;&#9;        translate(190,0)&#10;&#9;      " fill="#62e586" r="8.16496580927726"/><circle transform="&#10;&#9;        rotate(135.60676069033096)&#10;&#9;        translate(190,0)&#10;&#9;      " fill="#62e586" r="5.773502691896258"/><circle transform="&#10;&#9;        rotate(144.52829305548812)&#10;&#9;        translate(190,0)&#10;&#9;      " fill="#62e586" r="5.773502691896258"/><circle transform="&#10;&#9;        rotate(153.12192954934577)&#10;&#9;        translate(190,0)&#10;&#9;      " fill="#62e586" r="4.08248290463863"/><circle transform="&#10;&#9;        rotate(161.3876701719039)&#10;&#9;        translate(190,0)&#10;&#9;      " fill="#62e586" r="4.08248290463863"/><circle transform="&#10;&#9;        rotate(170.63189538136373)&#10;&#9;        translate(190,0)&#10;&#9;      " fill="#62e586" r="9.12870929175277"/><circle transform="&#10;&#9;        rotate(180.45561981341802)&#10;&#9;        translate(190,0)&#10;&#9;      " fill="#62e586" r="7.0710678118654755"/><circle transform="&#10;&#9;        rotate(190.09247031810804)&#10;&#9;        translate(190,0)&#10;&#9;      " fill="#2e2ec4" r="8.16496580927726"/><circle transform="&#10;&#9;        rotate(199.94143225974096)&#10;&#9;        translate(190,0)&#10;&#9;      " fill="#2e2ec4" r="8.16496580927726"/><circle transform="&#10;&#9;        rotate(209.79039420137389)&#10;&#9;        translate(190,0)&#10;&#9;      " fill="#e11495" r="8.16496580927726"/><circle transform="&#10;&#9;        rotate(219.6393561430068)&#10;&#9;        translate(190,0)&#10;&#9;      " fill="#62e586" r="8.16496580927726"/><circle transform="&#10;&#9;        rotate(229.0246032964019)&#10;&#9;        translate(190,0)&#10;&#9;      " fill="#62e586" r="5.773502691896258"/><circle transform="&#10;&#9;        rotate(237.94613566155903)&#10;&#9;        translate(190,0)&#10;&#9;      " fill="#62e586" r="5.773502691896258"/><circle transform="&#10;&#9;        rotate(247.1192713780111)&#10;&#9;        translate(190,0)&#10;&#9;      " fill="#2e2ec4" r="7.0710678118654755"/><circle transform="&#10;&#9;        rotate(256.2924070944633)&#10;&#9;        translate(190,0)&#10;&#9;      " fill="#62e586" r="5.773502691896258"/><circle transform="&#10;&#9;        rotate(265.2139394596203)&#10;&#9;        translate(190,0)&#10;&#9;      " fill="#62e586" r="5.773502691896258"/></g><g id="labels"><g transform="&#10;&#9;        rotate(106.72250435157738)&#10;&#9;        translate(0,0)&#10;&#9;        rotate(180)&#10;&#9;      "><text x="0" y="0" text-anchor="middle" dominant-baseline="text-before-edge" transform="translate(0,0)"><tspan x="6" y="0" dy="0" text-anchor="start" style="font-family: Arial, sans-serif; font-size: 10px; fill: black; font-weight: normal;"/></text></g><g transform="&#10;&#9;        rotate(-51.76893075646561)&#10;&#9;        translate(95,0)&#10;&#9;        rotate(0)&#10;&#9;      "><text x="0" y="0" text-anchor="middle" dominant-baseline="text-before-edge" transform="translate(0,-5.5)"><tspan x="-6" y="0" dy="0" text-anchor="end" style="font-family: Arial, sans-serif; font-size: 10px; fill: black; font-weight: normal;">Leopardus</tspan></text></g><g transform="&#10;&#9;        rotate(11.035885387262297)&#10;&#9;        translate(95,0)&#10;&#9;        rotate(0)&#10;&#9;      "><text x="0" y="0" text-anchor="middle" dominant-baseline="text-before-edge" transform="translate(0,-5.5)"><tspan x="-6" y="0" dy="0" text-anchor="end" style="font-family: Arial, sans-serif; font-size: 10px; fill: black; font-weight: normal;">Prionailurus</tspan></text></g><g transform="&#10;&#9;        rotate(59.9120510119364)&#10;&#9;        translate(95,0)&#10;&#9;        rotate(0)&#10;&#9;      "><text x="0" y="0" text-anchor="middle" dominant-baseline="text-before-edge" transform="translate(0,-5.5)"><tspan x="-6" y="0" dy="0" text-anchor="end" style="font-family: Arial, sans-serif; font-size: 10px; fill: black; font-weight: normal;">Panthera</tspan></text></g><g transform="&#10;&#9;        rotate(103.12867347800409)&#10;&#9;        translate(95,0)&#10;&#9;        rotate(180)&#10;&#9;      "><text x="0" y="0" text-anchor="middle" dominant-baseline="text-before-edge" transform="translate(0,-5.5)"><tspan x="6" y="0" dy="0" text-anchor="start" style="font-family: Arial, sans-serif; font-size: 10px; fill: black; font-weight: normal;">Lynx</tspan></text></g><g transform="&#10;&#9;        rotate(143.8045918544199)&#10;&#9;        translate(95,0)&#10;&#9;        rotate(180)&#10;&#9;      "><text x="0" y="0" text-anchor="middle" dominant-baseline="text-before-edge" transform="translate(0,-5.5)"><tspan x="6" y="0" dy="0" text-anchor="start" style="font-family: Arial, sans-serif; font-size: 10px; fill: black; font-weight: normal;">Felis</tspan></text></g><g transform="&#10;&#9;        rotate(175.54375759739082)&#10;&#9;        translate(95,0)&#10;&#9;        rotate(180)&#10;&#9;      "><text x="0" y="0" text-anchor="middle" dominant-baseline="text-before-edge" transform="translate(0,-5.5)"><tspan x="6" y="0" dy="0" text-anchor="start" style="font-family: Arial, sans-serif; font-size: 10px; fill: black; font-weight: normal;">Catopuma</tspan></text></g><g transform="&#10;&#9;        rotate(195.01695128892453)&#10;&#9;        translate(95,0)&#10;&#9;        rotate(180)&#10;&#9;      "><text x="0" y="0" text-anchor="middle" dominant-baseline="text-before-edge" transform="translate(0,-5.5)"><tspan x="6" y="0" dy="0" text-anchor="start" style="font-family: Arial, sans-serif; font-size: 10px; fill: black; font-weight: normal;">Neofelis</tspan></text></g><g transform="&#10;&#9;        rotate(209.79039420137389)&#10;&#9;        translate(95,0)&#10;&#9;        rotate(180)&#10;&#9;      "><text x="0" y="0" text-anchor="middle" dominant-baseline="text-before-edge" transform="translate(0,-5.5)"><tspan x="6" y="0" dy="0" text-anchor="start" style="font-family: Arial, sans-serif; font-size: 10px; fill: black; font-weight: normal;">Acinonyx</tspan></text></g><g transform="&#10;&#9;        rotate(219.6393561430068)&#10;&#9;        translate(95,0)&#10;&#9;        rotate(180)&#10;&#9;      "><text x="0" y="0" text-anchor="middle" dominant-baseline="text-before-edge" transform="translate(0,-5.5)"><tspan x="6" y="0" dy="0" text-anchor="start" style="font-family: Arial, sans-serif; font-size: 10px; fill: black; font-weight: normal;">Profelis</tspan></text></g><g transform="&#10;&#9;        rotate(233.4853694789805)&#10;&#9;        translate(95,0)&#10;&#9;        rotate(180)&#10;&#9;      "><text x="0" y="0" text-anchor="middle" dominant-baseline="text-before-edge" transform="translate(0,-5.5)"><tspan x="6" y="0" dy="0" text-anchor="start" style="font-family: Arial, sans-serif; font-size: 10px; fill: black; font-weight: normal;">Puma</tspan></text></g><g transform="&#10;&#9;        rotate(247.1192713780111)&#10;&#9;        translate(95,0)&#10;&#9;        rotate(180)&#10;&#9;      "><text x="0" y="0" text-anchor="middle" dominant-baseline="text-before-edge" transform="translate(0,-5.5)"><tspan x="6" y="0" dy="0" text-anchor="start" style="font-family: Arial, sans-serif; font-size: 10px; fill: black; font-weight: normal;">Pardofelis</tspan></text></g><g transform="&#10;&#9;        rotate(256.2924070944633)&#10;&#9;        translate(95,0)&#10;&#9;        rotate(180)&#10;&#9;      "><text x="0" y="0" text-anchor="middle" dominant-baseline="text-before-edge" transform="translate(0,-5.5)"><tspan x="6" y="0" dy="0" text-anchor="start" style="font-family: Arial, sans-serif; font-size: 10px; fill: black; font-weight: normal;">Leptailurus</tspan></text></g><g transform="&#10;&#9;        rotate(265.2139394596203)&#10;&#9;        translate(95,0)&#10;&#9;        rotate(180)&#10;&#9;      "><text x="0" y="0" text-anchor="middle" dominant-baseline="text-before-edge" transform="translate(0,-5.5)"><tspan x="6" y="0" dy="0" text-anchor="start" style="font-family: Arial, sans-serif; font-size: 10px; fill: black; font-weight: normal;">Otocolobus</tspan></text></g><g transform="&#10;&#9;        rotate(-85.21393945962035)&#10;&#9;        translate(190,0)&#10;&#9;        rotate(0)&#10;&#9;      "><text x="0" y="0" text-anchor="middle" dominant-baseline="text-before-edge" transform="translate(0,-11.5)"><tspan x="14.12870929175277" y="0" dy="0" text-anchor="start" style="font-family: Arial, sans-serif; font-size: 10px; fill: black; font-weight: bold;">Felidae</tspan><tspan x="14.12870929175277" y="0" dy="12" text-anchor="start" style="font-family: Arial, sans-serif; font-size: 10px; fill: black; font-weight: normal;">Andean mountain cat</tspan></text></g><g transform="&#10;&#9;        rotate(-75.17810359062314)&#10;&#9;        translate(190,0)&#10;&#9;        rotate(0)&#10;&#9;      "><text x="0" y="0" text-anchor="middle" dominant-baseline="text-before-edge" transform="translate(0,-11.5)"><tspan x="13.16496580927726" y="0" dy="0" text-anchor="start" style="font-family: Arial, sans-serif; font-size: 10px; fill: black; font-weight: bold;">Felidae</tspan><tspan x="13.16496580927726" y="0" dy="12" text-anchor="start" style="font-family: Arial, sans-serif; font-size: 10px; fill: black; font-weight: normal;">Kodkod</tspan></text></g><g transform="&#10;&#9;        rotate(-65.32914164899019)&#10;&#9;        translate(190,0)&#10;&#9;        rotate(0)&#10;&#9;      "><text x="0" y="0" text-anchor="middle" dominant-baseline="text-before-edge" transform="translate(0,-11.5)"><tspan x="13.16496580927726" y="0" dy="0" text-anchor="start" style="font-family: Arial, sans-serif; font-size: 10px; fill: black; font-weight: bold;">Felidae</tspan><tspan x="13.16496580927726" y="0" dy="12" text-anchor="start" style="font-family: Arial, sans-serif; font-size: 10px; fill: black; font-weight: normal;">Southern oncilla</tspan></text></g><g transform="&#10;&#9;        rotate(-55.48017970735726)&#10;&#9;        translate(190,0)&#10;&#9;        rotate(0)&#10;&#9;      "><text x="0" y="0" text-anchor="middle" dominant-baseline="text-before-edge" transform="translate(0,-11.5)"><tspan x="13.16496580927726" y="0" dy="0" text-anchor="start" style="font-family: Arial, sans-serif; font-size: 10px; fill: black; font-weight: bold;">Felidae</tspan><tspan x="13.16496580927726" y="0" dy="12" text-anchor="start" style="font-family: Arial, sans-serif; font-size: 10px; fill: black; font-weight: normal;">little spotted cat</tspan></text></g><g transform="&#10;&#9;        rotate(-45.84332920266722)&#10;&#9;        translate(190,0)&#10;&#9;        rotate(0)&#10;&#9;      "><text x="0" y="0" text-anchor="middle" dominant-baseline="text-before-edge" transform="translate(0,-11.5)"><tspan x="12.071067811865476" y="0" dy="0" text-anchor="start" style="font-family: Arial, sans-serif; font-size: 10px; fill: black; font-weight: bold;">Felidae</tspan><tspan x="12.071067811865476" y="0" dy="12" text-anchor="start" style="font-family: Arial, sans-serif; font-size: 10px; fill: black; font-weight: normal;">Colocolo</tspan></text></g><g transform="&#10;&#9;        rotate(-36.41859013492012)&#10;&#9;        translate(190,0)&#10;&#9;        rotate(0)&#10;&#9;      "><text x="0" y="0" text-anchor="middle" dominant-baseline="text-before-edge" transform="translate(0,-11.5)"><tspan x="12.071067811865476" y="0" dy="0" text-anchor="start" style="font-family: Arial, sans-serif; font-size: 10px; fill: black; font-weight: bold;">Felidae</tspan><tspan x="12.071067811865476" y="0" dy="12" text-anchor="start" style="font-family: Arial, sans-serif; font-size: 10px; fill: black; font-weight: normal;">margay</tspan></text></g><g transform="&#10;&#9;        rotate(-27.245454418468007)&#10;&#9;        translate(190,0)&#10;&#9;        rotate(0)&#10;&#9;      "><text x="0" y="0" text-anchor="middle" dominant-baseline="text-before-edge" transform="translate(0,-11.5)"><tspan x="10.773502691896258" y="0" dy="0" text-anchor="start" style="font-family: Arial, sans-serif; font-size: 10px; fill: black; font-weight: bold;">Felidae</tspan><tspan x="10.773502691896258" y="0" dy="12" text-anchor="start" style="font-family: Arial, sans-serif; font-size: 10px; fill: black; font-weight: normal;">Geoffroy's cat</tspan></text></g><g transform="&#10;&#9;        rotate(-18.323922053310838)&#10;&#9;        translate(190,0)&#10;&#9;        rotate(0)&#10;&#9;      "><text x="0" y="0" text-anchor="middle" dominant-baseline="text-before-edge" transform="translate(0,-11.5)"><tspan x="10.773502691896258" y="0" dy="0" text-anchor="start" style="font-family: Arial, sans-serif; font-size: 10px; fill: black; font-weight: bold;">Felidae</tspan><tspan x="10.773502691896258" y="0" dy="12" text-anchor="start" style="font-family: Arial, sans-serif; font-size: 10px; fill: black; font-weight: normal;">ocelot</tspan></text></g><g transform="&#10;&#9;        rotate(-8.582854028175944)&#10;&#9;        translate(190,0)&#10;&#9;        rotate(0)&#10;&#9;      "><text x="0" y="0" text-anchor="middle" dominant-baseline="text-before-edge" transform="translate(0,-11.5)"><tspan x="15" y="0" dy="0" text-anchor="start" style="font-family: Arial, sans-serif; font-size: 10px; fill: black; font-weight: bold;">Felidae</tspan><tspan x="15" y="0" dy="12" text-anchor="start" style="font-family: Arial, sans-serif; font-size: 10px; fill: black; font-weight: normal;">Iriomote cat</tspan></text></g><g transform="&#10;&#9;        rotate(1.8088027125611603)&#10;&#9;        translate(190,0)&#10;&#9;        rotate(0)&#10;&#9;      "><text x="0" y="0" text-anchor="middle" dominant-baseline="text-before-edge" transform="translate(0,-11.5)"><tspan x="14.12870929175277" y="0" dy="0" text-anchor="start" style="font-family: Arial, sans-serif; font-size: 10px; fill: black; font-weight: bold;">Felidae</tspan><tspan x="14.12870929175277" y="0" dy="12" text-anchor="start" style="font-family: Arial, sans-serif; font-size: 10px; fill: black; font-weight: normal;">flat-headed cat</tspan></text></g><g transform="&#10;&#9;        rotate(11.844638581558371)&#10;&#9;        translate(190,0)&#10;&#9;        rotate(0)&#10;&#9;      "><text x="0" y="0" text-anchor="middle" dominant-baseline="text-before-edge" transform="translate(0,-11.5)"><tspan x="13.16496580927726" y="0" dy="0" text-anchor="start" style="font-family: Arial, sans-serif; font-size: 10px; fill: black; font-weight: bold;">Felidae</tspan><tspan x="13.16496580927726" y="0" dy="12" text-anchor="start" style="font-family: Arial, sans-serif; font-size: 10px; fill: black; font-weight: normal;">fishing cat</tspan></text></g><g transform="&#10;&#9;        rotate(21.481489086248402)&#10;&#9;        translate(190,0)&#10;&#9;        rotate(0)&#10;&#9;      "><text x="0" y="0" text-anchor="middle" dominant-baseline="text-before-edge" transform="translate(0,-11.5)"><tspan x="12.071067811865476" y="0" dy="0" text-anchor="start" style="font-family: Arial, sans-serif; font-size: 10px; fill: black; font-weight: bold;">Felidae</tspan><tspan x="12.071067811865476" y="0" dy="12" text-anchor="start" style="font-family: Arial, sans-serif; font-size: 10px; fill: black; font-weight: normal;">rusty-spotted cat</tspan></text></g><g transform="&#10;&#9;        rotate(30.654624802700525)&#10;&#9;        translate(190,0)&#10;&#9;        rotate(0)&#10;&#9;      "><text x="0" y="0" text-anchor="middle" dominant-baseline="text-before-edge" transform="translate(0,-11.5)"><tspan x="10.773502691896258" y="0" dy="0" text-anchor="start" style="font-family: Arial, sans-serif; font-size: 10px; fill: black; font-weight: bold;">Felidae</tspan><tspan x="10.773502691896258" y="0" dy="12" text-anchor="start" style="font-family: Arial, sans-serif; font-size: 10px; fill: black; font-weight: normal;">leopard cat</tspan></text></g><g transform="&#10;&#9;        rotate(40.22674588345984)&#10;&#9;        translate(190,0)&#10;&#9;        rotate(0)&#10;&#9;      "><text x="0" y="0" text-anchor="middle" dominant-baseline="text-before-edge" transform="translate(0,-11.5)"><tspan x="14.12870929175277" y="0" dy="0" text-anchor="start" style="font-family: Arial, sans-serif; font-size: 10px; fill: black; font-weight: bold;">Felidae</tspan><tspan x="14.12870929175277" y="0" dy="12" text-anchor="start" style="font-family: Arial, sans-serif; font-size: 10px; fill: black; font-weight: normal;">tiger</tspan></text></g><g transform="&#10;&#9;        rotate(50.262581752457066)&#10;&#9;        translate(190,0)&#10;&#9;        rotate(0)&#10;&#9;      "><text x="0" y="0" text-anchor="middle" dominant-baseline="text-before-edge" transform="translate(0,-11.5)"><tspan x="13.16496580927726" y="0" dy="0" text-anchor="start" style="font-family: Arial, sans-serif; font-size: 10px; fill: black; font-weight: bold;">Felidae</tspan><tspan x="13.16496580927726" y="0" dy="12" text-anchor="start" style="font-family: Arial, sans-serif; font-size: 10px; fill: black; font-weight: normal;">lion</tspan></text></g><g transform="&#10;&#9;        rotate(60.11154369408999)&#10;&#9;        translate(190,0)&#10;&#9;        rotate(0)&#10;&#9;      "><text x="0" y="0" text-anchor="middle" dominant-baseline="text-before-edge" transform="translate(0,-11.5)"><tspan x="13.16496580927726" y="0" dy="0" text-anchor="start" style="font-family: Arial, sans-serif; font-size: 10px; fill: black; font-weight: bold;">Felidae</tspan><tspan x="13.16496580927726" y="0" dy="12" text-anchor="start" style="font-family: Arial, sans-serif; font-size: 10px; fill: black; font-weight: normal;">leopard</tspan></text></g><g transform="&#10;&#9;        rotate(69.96050563572294)&#10;&#9;        translate(190,0)&#10;&#9;        rotate(0)&#10;&#9;      "><text x="0" y="0" text-anchor="middle" dominant-baseline="text-before-edge" transform="translate(0,-11.5)"><tspan x="13.16496580927726" y="0" dy="0" text-anchor="start" style="font-family: Arial, sans-serif; font-size: 10px; fill: black; font-weight: bold;">Felidae</tspan><tspan x="13.16496580927726" y="0" dy="12" text-anchor="start" style="font-family: Arial, sans-serif; font-size: 10px; fill: black; font-weight: normal;">snow leopard</tspan></text></g><g transform="&#10;&#9;        rotate(79.59735614041296)&#10;&#9;        translate(190,0)&#10;&#9;        rotate(0)&#10;&#9;      "><text x="0" y="0" text-anchor="middle" dominant-baseline="text-before-edge" transform="translate(0,-11.5)"><tspan x="12.071067811865476" y="0" dy="0" text-anchor="start" style="font-family: Arial, sans-serif; font-size: 10px; fill: black; font-weight: bold;">Felidae</tspan><tspan x="12.071067811865476" y="0" dy="12" text-anchor="start" style="font-family: Arial, sans-serif; font-size: 10px; fill: black; font-weight: normal;">jaguar</tspan></text></g><g transform="&#10;&#9;        rotate(89.42108057246728)&#10;&#9;        translate(190,0)&#10;&#9;        rotate(0)&#10;&#9;      "><text x="0" y="0" text-anchor="middle" dominant-baseline="text-before-edge" transform="translate(0,-11.5)"><tspan x="14.12870929175277" y="0" dy="0" text-anchor="start" style="font-family: Arial, sans-serif; font-size: 10px; fill: black; font-weight: bold;">Felidae</tspan><tspan x="14.12870929175277" y="0" dy="12" text-anchor="start" style="font-family: Arial, sans-serif; font-size: 10px; fill: black; font-weight: normal;">Spanish lynx</tspan></text></g><g transform="&#10;&#9;        rotate(98.99320165322658)&#10;&#9;        translate(190,0)&#10;&#9;        rotate(180)&#10;&#9;      "><text x="0" y="0" text-anchor="middle" dominant-baseline="text-before-edge" transform="translate(0,-11.5)"><tspan x="-10.773502691896258" y="0" dy="0" text-anchor="end" style="font-family: Arial, sans-serif; font-size: 10px; fill: black; font-weight: bold;">Felidae</tspan><tspan x="-10.773502691896258" y="0" dy="12" text-anchor="end" style="font-family: Arial, sans-serif; font-size: 10px; fill: black; font-weight: normal;">Canada lynx</tspan></text></g><g transform="&#10;&#9;        rotate(107.91473401838371)&#10;&#9;        translate(190,0)&#10;&#9;        rotate(180)&#10;&#9;      "><text x="0" y="0" text-anchor="middle" dominant-baseline="text-before-edge" transform="translate(0,-11.5)"><tspan x="-10.773502691896258" y="0" dy="0" text-anchor="end" style="font-family: Arial, sans-serif; font-size: 10px; fill: black; font-weight: bold;">Felidae</tspan><tspan x="-10.773502691896258" y="0" dy="12" text-anchor="end" style="font-family: Arial, sans-serif; font-size: 10px; fill: black; font-weight: normal;">Eurasian lynx</tspan></text></g><g transform="&#10;&#9;        rotate(116.83626638354085)&#10;&#9;        translate(190,0)&#10;&#9;        rotate(180)&#10;&#9;      "><text x="0" y="0" text-anchor="middle" dominant-baseline="text-before-edge" transform="translate(0,-11.5)"><tspan x="-10.773502691896258" y="0" dy="0" text-anchor="end" style="font-family: Arial, sans-serif; font-size: 10px; fill: black; font-weight: bold;">Felidae</tspan><tspan x="-10.773502691896258" y="0" dy="12" text-anchor="end" style="font-family: Arial, sans-serif; font-size: 10px; fill: black; font-weight: normal;">bobcat</tspan></text></g><g transform="&#10;&#9;        rotate(126.22151353693596)&#10;&#9;        translate(190,0)&#10;&#9;        rotate(180)&#10;&#9;      "><text x="0" y="0" text-anchor="middle" dominant-baseline="text-before-edge" transform="translate(0,-11.5)"><tspan x="-13.16496580927726" y="0" dy="0" text-anchor="end" style="font-family: Arial, sans-serif; font-size: 10px; fill: black; font-weight: bold;">Felidae</tspan><tspan x="-13.16496580927726" y="0" dy="12" text-anchor="end" style="font-family: Arial, sans-serif; font-size: 10px; fill: black; font-weight: normal;">black-footed cat</tspan></text></g><g transform="&#10;&#9;        rotate(135.60676069033096)&#10;&#9;        translate(190,0)&#10;&#9;        rotate(180)&#10;&#9;      "><text x="0" y="0" text-anchor="middle" dominant-baseline="text-before-edge" transform="translate(0,-11.5)"><tspan x="-10.773502691896258" y="0" dy="0" text-anchor="end" style="font-family: Arial, sans-serif; font-size: 10px; fill: black; font-weight: bold;">Felidae</tspan><tspan x="-10.773502691896258" y="0" dy="12" text-anchor="end" style="font-family: Arial, sans-serif; font-size: 10px; fill: black; font-weight: normal;">jungle cat</tspan></text></g><g transform="&#10;&#9;        rotate(144.52829305548812)&#10;&#9;        translate(190,0)&#10;&#9;        rotate(180)&#10;&#9;      "><text x="0" y="0" text-anchor="middle" dominant-baseline="text-before-edge" transform="translate(0,-11.5)"><tspan x="-10.773502691896258" y="0" dy="0" text-anchor="end" style="font-family: Arial, sans-serif; font-size: 10px; fill: black; font-weight: bold;">Felidae</tspan><tspan x="-10.773502691896258" y="0" dy="12" text-anchor="end" style="font-family: Arial, sans-serif; font-size: 10px; fill: black; font-weight: normal;">sand cat</tspan></text></g><g transform="&#10;&#9;        rotate(153.12192954934577)&#10;&#9;        translate(190,0)&#10;&#9;        rotate(180)&#10;&#9;      "><text x="0" y="0" text-anchor="middle" dominant-baseline="text-before-edge" transform="translate(0,-11.5)"><tspan x="-9.082482904638631" y="0" dy="0" text-anchor="end" style="font-family: Arial, sans-serif; font-size: 10px; fill: black; font-weight: bold;">Felidae</tspan><tspan x="-9.082482904638631" y="0" dy="12" text-anchor="end" style="font-family: Arial, sans-serif; font-size: 10px; fill: black; font-weight: normal;">domestic cat</tspan></text></g><g transform="&#10;&#9;        rotate(161.3876701719039)&#10;&#9;        translate(190,0)&#10;&#9;        rotate(180)&#10;&#9;      "><text x="0" y="0" text-anchor="middle" dominant-baseline="text-before-edge" transform="translate(0,-11.5)"><tspan x="-9.082482904638631" y="0" dy="0" text-anchor="end" style="font-family: Arial, sans-serif; font-size: 10px; fill: black; font-weight: bold;">Felidae</tspan><tspan x="-9.082482904638631" y="0" dy="12" text-anchor="end" style="font-family: Arial, sans-serif; font-size: 10px; fill: black; font-weight: normal;">wild cat</tspan></text></g><g transform="&#10;&#9;        rotate(170.63189538136373)&#10;&#9;        translate(190,0)&#10;&#9;        rotate(180)&#10;&#9;      "><text x="0" y="0" text-anchor="middle" dominant-baseline="text-before-edge" transform="translate(0,-11.5)"><tspan x="-14.12870929175277" y="0" dy="0" text-anchor="end" style="font-family: Arial, sans-serif; font-size: 10px; fill: black; font-weight: bold;">Felidae</tspan><tspan x="-14.12870929175277" y="0" dy="12" text-anchor="end" style="font-family: Arial, sans-serif; font-size: 10px; fill: black; font-weight: normal;">bay cat</tspan></text></g><g transform="&#10;&#9;        rotate(180.45561981341802)&#10;&#9;        translate(190,0)&#10;&#9;        rotate(180)&#10;&#9;      "><text x="0" y="0" text-anchor="middle" dominant-baseline="text-before-edge" transform="translate(0,-11.5)"><tspan x="-12.071067811865476" y="0" dy="0" text-anchor="end" style="font-family: Arial, sans-serif; font-size: 10px; fill: black; font-weight: bold;">Felidae</tspan><tspan x="-12.071067811865476" y="0" dy="12" text-anchor="end" style="font-family: Arial, sans-serif; font-size: 10px; fill: black; font-weight: normal;">Asiatic golden cat</tspan></text></g><g transform="&#10;&#9;        rotate(190.09247031810804)&#10;&#9;        translate(190,0)&#10;&#9;        rotate(180)&#10;&#9;      "><text x="0" y="0" text-anchor="middle" dominant-baseline="text-before-edge" transform="translate(0,-11.5)"><tspan x="-13.16496580927726" y="0" dy="0" text-anchor="end" style="font-family: Arial, sans-serif; font-size: 10px; fill: black; font-weight: bold;">Felidae</tspan><tspan x="-13.16496580927726" y="0" dy="12" text-anchor="end" style="font-family: Arial, sans-serif; font-size: 10px; fill: black; font-weight: normal;">Sunda clouded leopard</tspan></text></g><g transform="&#10;&#9;        rotate(199.94143225974096)&#10;&#9;        translate(190,0)&#10;&#9;        rotate(180)&#10;&#9;      "><text x="0" y="0" text-anchor="middle" dominant-baseline="text-before-edge" transform="translate(0,-11.5)"><tspan x="-13.16496580927726" y="0" dy="0" text-anchor="end" style="font-family: Arial, sans-serif; font-size: 10px; fill: black; font-weight: bold;">Felidae</tspan><tspan x="-13.16496580927726" y="0" dy="12" text-anchor="end" style="font-family: Arial, sans-serif; font-size: 10px; fill: black; font-weight: normal;">Clouded leopard</tspan></text></g><g transform="&#10;&#9;        rotate(209.79039420137389)&#10;&#9;        translate(190,0)&#10;&#9;        rotate(180)&#10;&#9;      "><text x="0" y="0" text-anchor="middle" dominant-baseline="text-before-edge" transform="translate(0,-11.5)"><tspan x="-13.16496580927726" y="0" dy="0" text-anchor="end" style="font-family: Arial, sans-serif; font-size: 10px; fill: black; font-weight: bold;">Felidae</tspan><tspan x="-13.16496580927726" y="0" dy="12" text-anchor="end" style="font-family: Arial, sans-serif; font-size: 10px; fill: black; font-weight: normal;">cheetah</tspan></text></g><g transform="&#10;&#9;        rotate(219.6393561430068)&#10;&#9;        translate(190,0)&#10;&#9;        rotate(180)&#10;&#9;      "><text x="0" y="0" text-anchor="middle" dominant-baseline="text-before-edge" transform="translate(0,-11.5)"><tspan x="-13.16496580927726" y="0" dy="0" text-anchor="end" style="font-family: Arial, sans-serif; font-size: 10px; fill: black; font-weight: bold;">Felidae</tspan><tspan x="-13.16496580927726" y="0" dy="12" text-anchor="end" style="font-family: Arial, sans-serif; font-size: 10px; fill: black; font-weight: normal;">African golden cat</tspan></text></g><g transform="&#10;&#9;        rotate(229.0246032964019)&#10;&#9;        translate(190,0)&#10;&#9;        rotate(180)&#10;&#9;      "><text x="0" y="0" text-anchor="middle" dominant-baseline="text-before-edge" transform="translate(0,-11.5)"><tspan x="-10.773502691896258" y="0" dy="0" text-anchor="end" style="font-family: Arial, sans-serif; font-size: 10px; fill: black; font-weight: bold;">Felidae</tspan><tspan x="-10.773502691896258" y="0" dy="12" text-anchor="end" style="font-family: Arial, sans-serif; font-size: 10px; fill: black; font-weight: normal;">puma</tspan></text></g><g transform="&#10;&#9;        rotate(237.94613566155903)&#10;&#9;        translate(190,0)&#10;&#9;        rotate(180)&#10;&#9;      "><text x="0" y="0" text-anchor="middle" dominant-baseline="text-before-edge" transform="translate(0,-11.5)"><tspan x="-10.773502691896258" y="0" dy="0" text-anchor="end" style="font-family: Arial, sans-serif; font-size: 10px; fill: black; font-weight: bold;">Felidae</tspan><tspan x="-10.773502691896258" y="0" dy="12" text-anchor="end" style="font-family: Arial, sans-serif; font-size: 10px; fill: black; font-weight: normal;">jaguarundi</tspan></text></g><g transform="&#10;&#9;        rotate(247.1192713780111)&#10;&#9;        translate(190,0)&#10;&#9;        rotate(180)&#10;&#9;      "><text x="0" y="0" text-anchor="middle" dominant-baseline="text-before-edge" transform="translate(0,-11.5)"><tspan x="-12.071067811865476" y="0" dy="0" text-anchor="end" style="font-family: Arial, sans-serif; font-size: 10px; fill: black; font-weight: bold;">Felidae</tspan><tspan x="-12.071067811865476" y="0" dy="12" text-anchor="end" style="font-family: Arial, sans-serif; font-size: 10px; fill: black; font-weight: normal;">marbled cat</tspan></text></g><g transform="&#10;&#9;        rotate(256.2924070944633)&#10;&#9;        translate(190,0)&#10;&#9;        rotate(180)&#10;&#9;      "><text x="0" y="0" text-anchor="middle" dominant-baseline="text-before-edge" transform="translate(0,-11.5)"><tspan x="-10.773502691896258" y="0" dy="0" text-anchor="end" style="font-family: Arial, sans-serif; font-size: 10px; fill: black; font-weight: bold;">Felidae</tspan><tspan x="-10.773502691896258" y="0" dy="12" text-anchor="end" style="font-family: Arial, sans-serif; font-size: 10px; fill: black; font-weight: normal;">serval</tspan></text></g><g transform="&#10;&#9;        rotate(265.2139394596203)&#10;&#9;        translate(190,0)&#10;&#9;        rotate(180)&#10;&#9;      "><text x="0" y="0" text-anchor="middle" dominant-baseline="text-before-edge" transform="translate(0,-11.5)"><tspan x="-10.773502691896258" y="0" dy="0" text-anchor="end" style="font-family: Arial, sans-serif; font-size: 10px; fill: black; font-weight: bold;">Felidae</tspan><tspan x="-10.773502691896258" y="0" dy="12" text-anchor="end" style="font-family: Arial, sans-serif; font-size: 10px; fill: black; font-weight: normal;">Pallas's cat</tspan></text></g></g></g></svg>